<svg id="Layer_1" data-name="Layer 1" xmlns="http://www.w3.org/2000/svg" viewBox="0 0 283.46 170.08"><defs><style>.cls-1{fill:#073382;}.cls-2{fill:#fff;}.cls-3{fill:#dd1b1b;}</style></defs><title>Artboard 2</title><rect class="cls-1" width="283.46" height="170.08"/><polygon class="cls-2" points="283.46 16.66 283.46 0 261.52 0 168.23 51.94 77.63 111.54 -0.13 153.31 0 170.08 28.87 170.08 115.23 118.89 205.58 58.54 283.46 16.66"/><polygon class="cls-3" points="282.34 0.31 269.46 0.31 168.46 58.04 180.96 58.54 282.34 0.31"/><polygon class="cls-3" points="103.53 111.3 116.18 110.94 19.34 170.08 5.16 170.08 103.53 111.3"/><rect class="cls-2" x="115.23" width="53" height="170.08"/><rect class="cls-2" x="115.23" y="-56.69" width="53" height="283.46" transform="translate(226.77 -56.69) rotate(90)"/><polygon class="cls-2" points="0 16.31 0 0 20.34 0 115.23 52.07 206.68 112.51 283.46 153.29 283.46 170.08 258.54 170.08 168.23 119.01 77.25 58.04 0 16.31"/><polygon class="cls-3" points="0 10.16 -0.13 1.65 103.87 58.04 89.38 58.54 0 10.16"/><rect class="cls-3" x="123.19" width="37.09" height="170.08"/><rect class="cls-3" x="123.19" y="-56.96" width="37.09" height="283.46" transform="translate(226.51 -56.96) rotate(90)"/><polygon class="cls-3" points="176.87 111.04 194.84 111.54 283.46 160.17 283.46 168.97 176.87 111.04"/></svg>