<?xml version="1.0" encoding="UTF-8" standalone="no"?>
<svg
   version="1.0"
   width="581.12079pt"
   height="106.57424pt"
   viewBox="0 0 581.12079 106.57424"
   preserveAspectRatio="xMidYMid"
   id="svg18"
   sodipodi:docname="ras-kas.svg"
   inkscape:version="1.2.2 (b0a8486541, 2022-12-01)"
   xmlns:inkscape="http://www.inkscape.org/namespaces/inkscape"
   xmlns:sodipodi="http://sodipodi.sourceforge.net/DTD/sodipodi-0.dtd"
   xmlns="http://www.w3.org/2000/svg"
   xmlns:svg="http://www.w3.org/2000/svg">
  <defs
     id="defs22" />
  <sodipodi:namedview
     id="namedview20"
     pagecolor="#ffffff"
     bordercolor="#000000"
     borderopacity="0.25"
     inkscape:showpageshadow="2"
     inkscape:pageopacity="0.0"
     inkscape:pagecheckerboard="0"
     inkscape:deskcolor="#d1d1d1"
     inkscape:document-units="pt"
     showgrid="false"
     inkscape:zoom="1"
     inkscape:cx="362"
     inkscape:cy="71.5"
     inkscape:window-width="1080"
     inkscape:window-height="1851"
     inkscape:window-x="1080"
     inkscape:window-y="32"
     inkscape:window-maximized="1"
     inkscape:current-layer="svg18" />
  <path
     d="m 540.82078,1.1873025 c -9.8,3.6 -15.9,10.5000005 -17.9,19.9000005 -1,4.8 -0.9,6.4 0.5,11.1 2.9,8.9 5.8,12.2 30.2,33 9.8,8.4 11.4,16.3 4.1,20.7 -6.3,3.8 -14.4,1.6 -19.8,-5.5 -1.7,-2.2 -3.5,-4.5 -3.8,-4.9 -0.9,-1 -16,8 -16,9.4 0,1.8 5.7,9.4 10,13.3 6.5,5.799997 12.1,7.799997 22,7.899997 19.1,0.1 31,-10.699997 31,-28.299997 0,-12.6 -4,-18.4 -23.5,-34.5 -16.7,-13.8 -18.9,-17.2 -14.1,-21.9 4.4,-4.5 11.4,-3.2 18.2,3.5 l 4,3.9 6.5,-5.5 c 3.5,-3.1 6.5,-6.2 6.7,-6.9 0.4,-1.9 -9.9,-11.0000005 -15.4,-13.7000005 -5.9,-2.79999999 -17.2,-3.59999999 -22.7,-1.5 z"
     id="path2"
     style="fill:#000000;stroke:none;stroke-width:0.1" />
  <path
     d="m 216.11896,1.6735528 c -9.8,3.6 -15.9,10.5000002 -17.9,19.9000002 -1,4.8 -0.9,6.4 0.5,11.1 2.9,8.9 5.8,12.2 30.2,33 9.8,8.4 11.4,16.3 4.1,20.7 -6.3,3.8 -14.4,1.6 -19.8,-5.5 -1.7,-2.2 -3.5,-4.5 -3.8,-4.9 -0.9,-1 -16,8 -16,9.4 0,1.8 5.7,9.4 10,13.3 6.5,5.799997 12.1,7.799997 22,7.899997 19.1,0.1 31,-10.699997 31,-28.299997 0,-12.6 -4,-18.4 -23.5,-34.5 -16.7,-13.8 -18.9,-17.2 -14.1,-21.9 4.4,-4.5 11.4,-3.2 18.2,3.5 l 4,3.9 6.5,-5.5 c 3.5,-3.1 6.5,-6.2 6.7,-6.9 0.4,-1.9 -9.9,-11.0000005 -15.4,-13.7000002 -5.9,-2.79999999 -17.2,-3.59999999 -22.7,-1.5 z"
     id="path2-3"
     style="fill:#000000;stroke:none;stroke-width:0.1" />
  <path
     d="m 122.22078,3.9873025 c -0.5,1.3 -4.7,12.2000005 -9.4,24.3000005 -4.7,12.1 -13.3,34 -19,48.7 l -10.4,26.799997 h 10.1 10.2 l 4,-10.299997 3.9,-10.2 h 21 20.9 l 3.9,10.3 4,10.199997 h 9.8 c 5.5,0 9.9,-0.3 9.9,-0.7 0,-0.5 -8.5,-22.699997 -20,-52.299997 -2,-5.2 -6.7,-17.4 -10.4,-27 -3.7,-9.6 -7.1,-18.5000005 -7.6,-19.8000005 -0.9,-2.1 -1.6,-2.2 -10.5,-2.2 -9,0 -9.6,0.1 -10.4,2.2 z m 17.3,42.7000005 c 3.6,9.1 6.4,16.6 6.2,16.8 -0.2,0.2 -6.2,0.2 -13.4,0.1 l -13,-0.3 6.6,-16.7 c 3.6,-9.3 6.6,-16.7 6.8,-16.5 0.1,0.1 3.2,7.6 6.8,16.6 z"
     id="path6"
     style="fill:#000000;stroke:none;stroke-width:0.1" />
  <path
     d="m 334.12078,1.9873025 c 0,0.2 -0.1,23.1000005 -0.3,51.1000005 l -0.2,50.699997 h 9.7 9.8 l 0.2,-22.199997 0.3,-22.3 15.4,22.2 15.4,22.299997 h 11.4 c 8.9,0 11.3,-0.3 10.7,-1.3 -0.4,-0.6 -6.9,-9.999997 -14.3,-20.699997 -24.3,-35.1 -23.6,-34 -22.6,-35.5 0.6,-0.7 8.1,-10.4 16.8,-21.4 8.6,-11 16,-20.7000005 16.3,-21.6000005 0.6,-1.4 -0.7,-1.5 -10.7,-1.3 l -11.3,0.3 -13.6,17.4000005 -13.5,17.4 -0.3,-17.7 -0.2,-17.6000005 h -9.5 c -5.2,0 -9.5,0.1 -9.5,0.2 z"
     id="path10"
     style="fill:#000000;stroke:none;stroke-width:0.1" />
  <path
     d="m 0.5,1.4656076 c 0,0.2 -0.1,23.1000004 -0.29999,51.1000004 L 0,103.26561 H 9.70001 19.5 l 0.20001,-22.200002 0.08648,-19.516112 1.065065,0.01093 19.11958,27.400236 10.828869,14.304938 H 62.2 c 8.9,0 11.3,-0.3 10.7,-1.3 C 72.5,101.36561 68.74237,96.833867 57.31322,80.950755 43.362569,61.603321 44.009911,61.48403 42.062129,59.818205 46.121884,57.975935 52.119306,56.896313 57.62007,50.123397 65.11602,42.277067 67.0625,22.402747 56.97978,12.581632 43.393731,-0.54674169 27.213093,1.0696231 17.213093,1.2696231 l 2.345981,16.7536999 c 0,0 24.459394,-2.780391 24.459394,12.713915 0,15.494305 -23.972219,12.496384 -23.972219,12.496384 L 19.70001,18.865608 19.5,1.2656076 H 10 c -5.19999,0 -9.5,0.1 -9.5,0.2 z"
     id="path10-6"
     style="fill:#000000;stroke:none;stroke-width:0.1"
     sodipodi:nodetypes="scccccccccsccccccczcccss" />
  <path
     d="m 452.82078,2.4873025 c -0.6,0.9 -22.4,56.8000005 -33.3,85.0000005 l -6.2,16.299997 h 10.2 10.1 l 4,-10.499997 4,-10.5 20.9,0.2 20.9,0.3 3.8,10 3.8,9.999997 10,0.3 c 5.6,0.1 10.1,0.1 10.1,-0.2 0,-0.4 -5.9,-15.799997 -27.9,-72.599997 l -11,-28.5000005 -9.5,-0.3 c -5.2,-0.1 -9.7,0.1 -9.9,0.5 z m 10,61.1000005 c -7.1,0.1 -13.1,0.1 -13.3,-0.1 -0.2,-0.2 2.6,-7.9 6.3,-17.1 l 6.6,-16.8 6.7,16.9 6.7,16.8 z"
     id="path12"
     style="fill:#000000;stroke:none;stroke-width:0.1" />
  <path
     d="m 291.42078,44.787303 c -3.5,2.1 -5.4,6.9 -4.6,11.4 1.2,6.1 9.3,10.1 15.4,7.6 11.3,-4.7 8,-21 -4.3,-21 -1.8,0 -4.7,0.9 -6.5,2 z"
     id="path14"
     style="fill:#000000;stroke:none;stroke-width:0.1" />
</svg>
