<?xml version="1.0" standalone="no"?>
<!DOCTYPE svg PUBLIC "-//W3C//DTD SVG 20010904//EN"
 "http://www.w3.org/TR/2001/REC-SVG-20010904/DTD/svg10.dtd">
<svg version="1.0" xmlns="http://www.w3.org/2000/svg"
 width="640.000000pt" height="112.000000pt" viewBox="0 0 640.000000 112.000000"
 preserveAspectRatio="xMidYMid meet">
<g transform="translate(0.000000,112.000000) scale(0.100000,-0.100000)"
fill="#000000" stroke="none">
<path d="M5887 1086 c-98 -36 -159 -105 -179 -199 -10 -48 -9 -64 5 -111 29
-89 58 -122 302 -330 98 -84 114 -163 41 -207 -63 -38 -144 -16 -198 55 -17
22 -35 45 -38 49 -9 10 -160 -80 -160 -94 0 -18 57 -94 100 -133 65 -58 121
-78 220 -79 191 -1 310 107 310 283 0 126 -40 184 -235 345 -167 138 -189 172
-141 219 44 45 114 32 182 -35 l40 -39 65 55 c35 31 65 62 67 69 4 19 -99 110
-154 137 -59 28 -172 36 -227 15z"/>
<path d="M216 1053 c-5 -26 -29 -162 -62 -353 -8 -47 -21 -119 -29 -160 -7
-41 -28 -156 -45 -255 -17 -99 -34 -190 -37 -202 -5 -23 -4 -23 90 -23 l95 0
17 98 c9 53 27 156 40 227 13 72 29 164 36 205 7 41 15 79 19 83 5 5 54 -131
111 -302 l104 -311 86 0 86 0 103 303 c56 166 106 306 110 310 9 10 5 28 66
-330 l48 -283 93 0 c51 0 93 3 93 8 0 4 -9 57 -20 117 -11 61 -25 137 -30 170
-8 57 -57 347 -100 592 -11 61 -20 116 -20 122 0 7 -33 11 -94 11 l-94 0 -117
-350 c-65 -193 -120 -348 -124 -345 -3 4 -58 160 -122 348 l-115 342 -91 3
-91 3 -6 -28z"/>
<path d="M1701 1058 c-5 -13 -47 -122 -94 -243 -47 -121 -133 -340 -190 -487
l-104 -268 101 0 102 0 40 103 39 102 210 0 209 0 39 -103 40 -102 98 0 c55 0
99 3 99 7 0 5 -85 227 -200 523 -20 52 -67 174 -104 270 -37 96 -71 185 -76
198 -9 21 -16 22 -105 22 -90 0 -96 -1 -104 -22z m173 -427 c36 -91 64 -166
62 -168 -2 -2 -62 -2 -134 -1 l-130 3 66 167 c36 93 66 167 68 165 1 -1 32
-76 68 -166z"/>
<path d="M2407 1074 c-10 -11 -8 -625 3 -728 16 -155 85 -249 212 -292 68 -22
188 -22 256 0 68 23 144 92 179 164 l28 57 3 403 3 402 -95 0 -95 0 -3 -377
c-3 -429 -3 -428 -81 -464 -54 -24 -91 -24 -141 1 -73 35 -70 21 -76 450 l-5
385 -90 3 c-50 1 -94 0 -98 -4z"/>
<path d="M3820 1078 c0 -2 -1 -231 -3 -511 l-2 -507 97 0 98 0 2 222 3 223
154 -222 154 -223 114 0 c89 0 113 3 107 13 -4 6 -69 100 -143 207 -243 351
-236 340 -226 355 6 7 81 104 168 214 86 110 160 207 163 216 6 14 -7 15 -107
13 l-113 -3 -136 -174 -135 -174 -3 177 -2 176 -95 0 c-52 0 -95 -1 -95 -2z"/>
<path d="M5007 1073 c-6 -9 -224 -568 -333 -850 l-62 -163 102 0 101 0 40 105
40 105 209 -2 209 -3 38 -100 38 -100 100 -3 c56 -1 101 -1 101 2 0 4 -59 158
-279 726 l-110 285 -95 3 c-52 1 -97 -1 -99 -5z m100 -611 c-71 -1 -131 -1
-133 1 -2 2 26 79 63 171 l66 168 67 -169 67 -168 -130 -3z"/>
<path d="M3393 650 c-35 -21 -54 -69 -46 -114 12 -61 93 -101 154 -76 113 47
80 210 -43 210 -18 0 -47 -9 -65 -20z"/>
</g>
</svg>
